# xmcd
#
# Track frame offsets:
#	150
#	10247
#	21077
#	29720
#	41488
#	52122
#	63388
#	75424
#	84450
#	96306
#	108626
#	117433
#	127881
#	141069
#	153795
#	166820
#
# Disc length: 2382 seconds
#
# Revision: 0
# Processed by: cddbd v1.5.1PL0 Copyright (c) Steve Scherf et al.
# Submitted via: dBpowerAMP V4.0
#
DISCID=ca094c10
DTITLE=Various Artist - Kings of Country
DYEAR=1900
DGENRE=Country
TTITLE0=Don Gibson - Lonesome Number one
TTITLE1=Johnny Paycheck - Apartment
TTITLE2=Waylon Jennings - Abilene
TTITLE3=Porter Waggoner - A satisfied mind
TTITLE4=Carl Perkins - What am I living for
TTITLE5=Roy Drusky - The last letter
TTITLE6=Frankie Laine - Your cheatin heart
TTITLE7=Burl Ives - A little bitty Tear
TTITLE8=Roy Drusky - Take these chains from my heart
TTITLE9=Moe Bandy - It's a cheating situation
TTITLE10=Buck Owens - Right after the dance
TTITLE11=Mickey Gilley - Forgive
TTITLE12=David Houston - When they ring those golden bells
TTITLE13=Freddy Fender - I cant't stop loving you
TTITLE14=Kenny Rogers - Ruby (Don't take your love to town)
TTITLE15=Billy Joe Royal - Let your love flow
EXTD=
EXTT0=
EXTT1=
EXTT2=
EXTT3=
EXTT4=
EXTT5=
EXTT6=
EXTT7=
EXTT8=
EXTT9=
EXTT10=
EXTT11=
EXTT12=
EXTT13=
EXTT14=
EXTT15=
PLAYORDER=
